<svg id="Logo" xmlns="http://www.w3.org/2000/svg" width="76" height="76" viewBox="0 0 76 76">
  <rect id="Rectangle_1" data-name="Rectangle 1" width="76" height="76" fill="#ffdc47"/>
  <g id="Group_6" data-name="Group 6" transform="translate(23.123 10.395)">
    <g id="Group_2" data-name="Group 2" transform="translate(0.007 0)">
      <g id="Group_1" data-name="Group 1">
        <path id="Path_1" data-name="Path 1" d="M91.3,227.256a10.676,10.676,0,0,1,3.817,1.574l-5.982-5.982-7.791,7.832a4.275,4.275,0,0,0-.2.748,7.824,7.824,0,0,0,.591,4.406,48.065,48.065,0,0,0,3.776,6.689,18.849,18.849,0,0,1,3.188,7.042A5.854,5.854,0,0,1,86.85,254.6a6.579,6.579,0,0,1-4.407,2.164,13.807,13.807,0,0,0,4.565,1.456,12.348,12.348,0,0,0,2.045-1.731,9.53,9.53,0,0,0,2.635-6.058c.2-2.321-1.257-5.863-4.327-10.545a19.925,19.925,0,0,1-3.149-6.531,5.074,5.074,0,0,1,1.535-4.407,5.954,5.954,0,0,1,5.549-1.692" transform="translate(-74.373 -222.847)" fill="#05253c"/>
        <path id="Path_2" data-name="Path 2" d="M100.7,238.4a9.557,9.557,0,0,0-4.131-2.517,3.354,3.354,0,0,0-3.583.866,2.6,2.6,0,0,0-.549,2.715,22.906,22.906,0,0,0,2.833,5.036c3.267,4.762,4.839,8.381,4.8,10.9a8.557,8.557,0,0,1-2.284,5.982,10.3,10.3,0,0,1-5.744,2.637,17.167,17.167,0,0,0,2.005.117,14.288,14.288,0,0,0,10.468-4.328,14.078,14.078,0,0,0,4.289-10.427,17.157,17.157,0,0,0-.119-2.045c-.669.748-1.337,1.495-2.007,2.322s-1.535,1.849-2.675,3.029l-.433-.433a11.563,11.563,0,0,0,.632-7.751,12.231,12.231,0,0,0-3.5-6.1" transform="translate(-79.327 -228.639)" fill="#05253c"/>
        <path id="Path_3" data-name="Path 3" d="M72.521,243.3l-.471.433a14.211,14.211,0,0,0-3.15,9.129,11.273,11.273,0,0,0,2.4,7.594,6.868,6.868,0,0,0,3.9,2.519,3.975,3.975,0,0,0,3.626-1.1,3.618,3.618,0,0,0,.825-3.7,26.4,26.4,0,0,0-3.739-6.729,18.86,18.86,0,0,1-3.383-7.791V243.3" transform="translate(-68.898 -232.065)" fill="#05253c"/>
      </g>
    </g>
    <g id="Group_3" data-name="Group 3" transform="translate(0.036 37.991)">
      <path id="Path_4" data-name="Path 4" d="M68.966,299.571a.856.856,0,0,1,.848-.769.559.559,0,0,1,.4.14.991.991,0,0,0-.209.628.606.606,0,0,0,.629.659.8.8,0,0,0,.788-.8c0-.757-1.647-.669-1.647-2.166a1.532,1.532,0,0,1,1.707-1.537c.849,0,1.258.319,1.258.968,0,.559-.329.838-.7.819a.807.807,0,0,1-.4-.139.909.909,0,0,0,.17-.539c0-.369-.209-.539-.449-.539-.269,0-.579.27-.579.809,0,1.06,1.637.828,1.637,2.1,0,.968-.579,1.687-2.045,1.687C69.305,300.889,68.856,300.24,68.966,299.571Z" transform="translate(-68.95 -293.685)" fill="#05253c"/>
      <path id="Path_5" data-name="Path 5" d="M78.138,296.8a1.932,1.932,0,0,1,1.477-1,.881.881,0,0,1,.839,1.028,1.98,1.98,0,0,1,1.5-1.028c.449,0,1.1.3.839,1.467l-.489,2.3c-.06.289.07.409.27.409a1.676,1.676,0,0,0,1.048-.5.264.264,0,0,1,.17.239.347.347,0,0,1-.09.22,2.627,2.627,0,0,1-1.807.984c-.5,0-1.028-.249-.778-1.417l.419-1.986c.08-.319.09-.589-.239-.589a1.184,1.184,0,0,0-.869.459l-.619,2.9a.8.8,0,0,1-.839.629.86.86,0,0,1-.469-.13l.7-3.273c.07-.319.089-.589-.24-.589a1.212,1.212,0,0,0-.918.519l-.606,2.845a.8.8,0,0,1-.838.629.862.862,0,0,1-.469-.13l.819-3.832c.04-.16-.01-.249-.1-.249-.05,0-.11.039-.2.12a.364.364,0,0,1,0-.549,1.817,1.817,0,0,1,1.118-.479c.359,0,.569.17.479.549Z" transform="translate(-72.183 -293.72)" fill="#05253c"/>
      <path id="Path_6" data-name="Path 6" d="M93.116,296.059a.887.887,0,0,1,.682-.289.862.862,0,0,1,.469.13l-.7,3.3c-.12.559.04.739.3.739a1.674,1.674,0,0,0,1.047-.5.264.264,0,0,1,.17.239.347.347,0,0,1-.089.22,2.751,2.751,0,0,1-1.727.984c-.469,0-.938-.22-.928-1.008a2.024,2.024,0,0,1-1.515,1.008c-1.037,0-1.247-1.038-1.247-1.677,0-1.747,1.128-3.483,2.515-3.483A1.48,1.48,0,0,1,93.116,296.059Zm-.2.5a1.364,1.364,0,0,0-.469-.08c-1.207,0-1.637,1.577-1.637,2.665,0,.5.227.719.539.719a1.439,1.439,0,0,0,1.009-.629Z" transform="translate(-78.246 -293.686)" fill="#05253c"/>
      <path id="Path_7" data-name="Path 7" d="M98.426,299.571a.856.856,0,0,1,.849-.769.559.559,0,0,1,.4.14.989.989,0,0,0-.21.628.606.606,0,0,0,.629.659.8.8,0,0,0,.788-.8c0-.757-1.647-.669-1.647-2.166a1.532,1.532,0,0,1,1.707-1.537c.849,0,1.258.319,1.258.968,0,.559-.329.838-.7.819a.8.8,0,0,1-.4-.139.909.909,0,0,0,.17-.539c0-.369-.21-.539-.449-.539-.269,0-.579.27-.579.809,0,1.06,1.637.828,1.637,2.1,0,.968-.579,1.687-2.045,1.687C98.765,300.889,98.316,300.24,98.426,299.571Z" transform="translate(-82.228 -293.685)" fill="#05253c"/>
      <path id="Path_8" data-name="Path 8" d="M108.2,297.8l.42-1.986c.07-.319.089-.589-.239-.589a1.238,1.238,0,0,0-.928.53l-.629,2.835a.8.8,0,0,1-.838.629.691.691,0,0,1-.419-.1l1.267-5.948c.06-.27-.129-.329-.289-.14a.379.379,0,0,1-.151-.309c0-.227.719-.709,1.257-.709.359,0,.559.17.479.549L107.608,295a1.75,1.75,0,0,1,1.327-.909c.5,0,1.187.289.938,1.467l-.489,2.3c-.059.289.07.409.27.409a1.675,1.675,0,0,0,1.048-.5.264.264,0,0,1,.17.239.347.347,0,0,1-.089.22,2.628,2.628,0,0,1-1.807.984C108.478,299.214,107.949,298.965,108.2,297.8Z" transform="translate(-85.452 -292.01)" fill="#05253c"/>
      <path id="Path_9" data-name="Path 9" d="M114.59,296.962c.039-.16-.011-.249-.1-.249-.05,0-.11.039-.2.12a.364.364,0,0,1,0-.549,1.818,1.818,0,0,1,1.118-.479c.359,0,.559.17.479.549l-.619,2.878c-.07.309.01.549.339.549a1.11,1.11,0,0,0,.769-.359l.649-2.984a.8.8,0,0,1,.839-.629.863.863,0,0,1,.469.13l-.849,3.952c-.04.17-.08.349-.12.53a2.4,2.4,0,0,1,.419-.04c.409,0,.589.4.459.789a3.324,3.324,0,0,0-1.048-.03c-.459,1.777-1.218,3.553-2.9,3.553a1.093,1.093,0,0,1-1.078-1.228c0-1.237,1.557-2.2,2.9-2.685.06-.219.12-.439.189-.682a1.807,1.807,0,0,1-1.337.818c-.984,0-1.048-.978-.848-1.906Zm1.317,4.511c-1.1.439-2.016,1.178-2.016,1.857a.442.442,0,0,0,.409.469c.69,0,1.1-.689,1.608-2.326Z" transform="translate(-88.898 -293.721)" fill="#05253c"/>
    </g>
    <g id="Group_5" data-name="Group 5" transform="translate(0 46.435)">
      <g id="Group_4" data-name="Group 4" transform="translate(0 0)">
        <path id="Path_10" data-name="Path 10" d="M71.644,313.581a2.024,2.024,0,0,1-1.514,1.008c-1.038,0-1.247-1.038-1.247-1.677,0-1.747,1.128-3.483,2.515-3.483a1.481,1.481,0,0,1,.958.279l.249-1.167c.06-.27-.129-.329-.289-.14a.379.379,0,0,1-.151-.309c0-.227.719-.709,1.257-.709.359,0,.559.17.479.549L72.852,312.9c-.12.559.039.738.3.738a1.674,1.674,0,0,0,1.048-.5.264.264,0,0,1,.169.239.347.347,0,0,1-.089.22,2.749,2.749,0,0,1-1.727.984C72.082,314.59,71.634,314.369,71.644,313.581Zm.02-.639.569-2.675a1.444,1.444,0,0,0-.479-.09c-1.212,0-1.637,1.577-1.637,2.665,0,.5.227.719.539.719a1.439,1.439,0,0,0,1.008-.629Z" transform="translate(-68.882 -307.383)" fill="#05253c"/>
        <path id="Path_11" data-name="Path 11" d="M79.628,314.661a.847.847,0,0,0,.928.739,2.958,2.958,0,0,0,2.067-1.078c.259-.05.359.159.249.339a3.635,3.635,0,0,1-2.815,1.607,1.608,1.608,0,0,1-1.7-1.787c0-1.3.858-3.373,2.5-3.373.909,0,1.136.509,1.136.958C82,312.914,81.555,313.594,79.628,314.661Zm-.029-.429c.968-.606,1.627-1.307,1.627-1.957,0-.227-.12-.389-.289-.389C79.949,311.887,79.628,313.533,79.6,314.232Z" transform="translate(-73.153 -309.062)" fill="#05253c"/>
        <path id="Path_12" data-name="Path 12" d="M84.695,314.948a.857.857,0,0,1,.849-.769.559.559,0,0,1,.4.14.992.992,0,0,0-.21.629.606.606,0,0,0,.629.659.8.8,0,0,0,.787-.8c0-.757-1.647-.669-1.647-2.166a1.533,1.533,0,0,1,1.707-1.537c.849,0,1.258.319,1.258.968,0,.559-.329.838-.7.819a.806.806,0,0,1-.4-.139.908.908,0,0,0,.17-.539c0-.369-.209-.539-.449-.539-.269,0-.579.269-.579.808,0,1.06,1.637.828,1.637,2.1,0,.968-.579,1.687-2.045,1.687C85.033,316.265,84.585,315.616,84.695,314.948Z" transform="translate(-76.002 -309.059)" fill="#05253c"/>
        <path id="Path_13" data-name="Path 13" d="M92.837,310.708c.03-.159-.01-.249-.1-.249-.05,0-.11.04-.2.12a.364.364,0,0,1,0-.549,1.818,1.818,0,0,1,1.118-.479c.359,0,.559.17.479.549l-.606,2.884c-.12.559.04.738.3.738a1.672,1.672,0,0,0,1.048-.5.263.263,0,0,1,.17.239.348.348,0,0,1-.09.22,2.627,2.627,0,0,1-1.807.984c-.5,0-1.078-.279-.888-1.188Zm1.088-3.143a.625.625,0,0,1,.639.7.811.811,0,0,1-.779.7.6.6,0,0,1-.619-.7.775.775,0,0,1,.759-.7Z" transform="translate(-79.403 -307.465)" fill="#05253c"/>
        <path id="Path_14" data-name="Path 14" d="M100.135,316.207c-.449,1.857-1.148,3.823-2.878,3.823A1.136,1.136,0,0,1,96.08,318.8c0-1.237,1.557-2.185,2.9-2.685.07-.249.14-.5.22-.778a1.957,1.957,0,0,1-1.457.928c-1.037,0-1.247-1.038-1.247-1.677,0-1.747,1.128-3.483,2.515-3.483a1.45,1.45,0,0,1,1.018.329.909.909,0,0,1,.689-.289.862.862,0,0,1,.469.13l-.838,3.952c-.03.139-.06.279-.09.409a7.159,7.159,0,0,0,1.427-.868.319.319,0,0,1,.011.5A8.392,8.392,0,0,1,100.135,316.207Zm-1.357.606c-1.1.439-2.017,1.187-2.017,1.857a.443.443,0,0,0,.409.469c.689,0,1.1-.686,1.608-2.322Zm1.068-4.88a1.363,1.363,0,0,0-.469-.08c-1.212,0-1.637,1.577-1.637,2.665,0,.5.227.719.539.719a1.439,1.439,0,0,0,1.008-.629Z" transform="translate(-81.141 -309.061)" fill="#05253c"/>
        <path id="Path_15" data-name="Path 15" d="M109.341,314.613c-.11.509.02.729.219.729.18,0,.41-.12.559-.479.19,0,.3.1.3.27,0,.7-.819,1.168-1.377,1.168-.5,0-1.212-.249-.958-1.418l.419-1.986c.089-.419-.05-.589-.27-.589a1.412,1.412,0,0,0-.888.519l-.606,2.845a.8.8,0,0,1-.838.629.867.867,0,0,1-.469-.129l.819-3.833c.04-.159-.01-.249-.1-.249-.05,0-.11.04-.2.12a.364.364,0,0,1,0-.549,1.817,1.817,0,0,1,1.118-.479c.359,0,.569.17.479.549l-.1.449a2.163,2.163,0,0,1,1.637-1c.53,0,.9.419.682,1.467Z" transform="translate(-85.356 -309.094)" fill="#05253c"/>
        <path id="Path_16" data-name="Path 16" d="M116.313,318.249a.657.657,0,0,1,.669.7.75.75,0,0,1-.738.7.644.644,0,0,1-.659-.7.733.733,0,0,1,.728-.7Z" transform="translate(-89.932 -312.28)" fill="#05253c"/>
      </g>
    </g>
  </g>
</svg>
